<svg xmlns="http://www.w3.org/2000/svg" fill-rule="evenodd" clip-rule="evenodd" viewBox="0 0 24 24"><path d="M7.902 14C6.18 12.61 5 10.032 5 7.963c0-3.094 2.158-4.89 4.187-4.961.841-.013 1.729.199 2.394.57A5.723 5.723 0 0010.237.614L11.604 0c.283.407.572 1.129.761 1.979.383-.695.848-1.262 1.475-1.628.669-.391 1.778-.412 2.518-.272-.187.658-.577 1.513-1.491 2.075-.562.345-1.467.522-2.384.453.042.283.073.574.087.867.682-.364 1.44-.484 2.243-.472C16.842 3.073 19 4.869 19 7.963c0 2.069-1.18 4.647-2.902 6.037H23v2H3.5a.5.5 0 000 1H23v2H4.5a1.5 1.5 0 000 3H23v2H4.5a3.501 3.501 0 01-2.727-5.693A2.5 2.5 0 013.5 14h4.402zM23 21H5v-1h18v1zM10.376 5.4c-1.643 1.229-2.035 3.45-.42 6.6-.755-.402-2.37-2.047-2.352-3.945A2.647 2.647 0 0110.376 5.4z"/></svg>